<svg xmlns="http://www.w3.org/2000/svg" version="1.1" xmlns:xlink="http://www.w3.org/1999/xlink" xmlns:svgjs="http://svgjs.com/svgjs" width="512" height="512" x="0" y="0" viewBox="0 0 480 480" style="enable-background:new 0 0 512 512" xml:space="preserve"><g><path d="M240 0C107.452 0 0 107.452 0 240s107.452 240 240 240 240-107.452 240-240C479.85 107.514 372.486.15 240 0zm0 464C116.288 464 16 363.712 16 240S116.288 16 240 16s224 100.288 224 224c-.141 123.653-100.347 223.859-224 224z" fill="#ffffff" data-original="#000000"></path><path d="M48 240H32a206.59 206.59 0 0 0 60.992 147.008l11.312-11.312A190.694 190.694 0 0 1 48 240zM240 176c-35.346 0-64 28.654-64 64 0 35.346 28.654 64 64 64 35.346 0 64-28.654 64-64-.04-35.33-28.67-63.96-64-64zm0 112c-26.51 0-48-21.49-48-48s21.49-48 48-48 48 21.49 48 48c-.026 26.499-21.501 47.974-48 48z" fill="#ffffff" data-original="#000000"></path><path d="M240 200c-22.091 0-40 17.909-40 40s17.909 40 40 40 40-17.909 40-40c-.026-22.08-17.92-39.974-40-40zm0 64c-13.255 0-24-10.745-24-24s10.745-24 24-24 24 10.745 24 24-10.745 24-24 24z" fill="#ffffff" data-original="#000000"></path></g></svg>