<svg xmlns="http://www.w3.org/2000/svg" version="1.1" xmlns:xlink="http://www.w3.org/1999/xlink" xmlns:svgjs="http://svgjs.com/svgjs" width="512" height="512" x="0" y="0" viewBox="0 0 152 152" style="enable-background:new 0 0 512 512" xml:space="preserve" class=""><g><g data-name="Layer 2"><g data-name="02.twitter"><circle cx="76" cy="76" r="76" fill="#a22d8e" data-original="#00a6de" class=""></circle><path fill="#ffffff" d="M113.85 53a32.09 32.09 0 0 1-6.51 7.15 2.78 2.78 0 0 0-1 2.17v.25a45.58 45.58 0 0 1-2.94 15.86 46.45 46.45 0 0 1-8.65 14.5A42.73 42.73 0 0 1 76 105.32a46.9 46.9 0 0 1-14.74 2.29 45 45 0 0 1-22.6-6.09 1.3 1.3 0 0 1-.62-1.44 1.25 1.25 0 0 1 1.22-.94h1.9A30.24 30.24 0 0 0 58.1 94a16.42 16.42 0 0 1-13-11.16.86.86 0 0 1 1-1.11 15.08 15.08 0 0 0 2.76.26h.35a16.43 16.43 0 0 1-9.57-15.11.86.86 0 0 1 1.27-.75 14.44 14.44 0 0 0 3.74 1.45A16.42 16.42 0 0 1 42 47.66a.86.86 0 0 1 1.41-.12 42.93 42.93 0 0 0 29.51 15.78H73a.62.62 0 0 0 .6-.67 17.36 17.36 0 0 1 .38-6 15.91 15.91 0 0 1 10.7-11.44 17.59 17.59 0 0 1 5.19-.8 16.36 16.36 0 0 1 10.84 4.09 2.12 2.12 0 0 0 1.41.54 2.15 2.15 0 0 0 .5-.07 30 30 0 0 0 8-3.31.85.85 0 0 1 1.25 1 16.23 16.23 0 0 1-4.31 6.87 30.2 30.2 0 0 0 5.24-1.77.86.86 0 0 1 1.05 1.24z" data-original="#ffffff"></path></g></g></g></svg>